<mxfile host="app.diagrams.net" modified="2021-02-24T03:41:42.352Z" agent="5.0 (Macintosh; Intel Mac OS X 11_2_1) AppleWebKit/537.36 (KHTML, like Gecko) Chrome/88.0.4324.182 Safari/537.36" etag="shdpSEgsQRC333DlLH9-" version="14.4.2" type="github">
  <diagram id="sE8CNh6ro99aj_Q-QoeH" name="第 1 页">
    <mxGraphModel dx="2125" dy="907" grid="1" gridSize="10" guides="1" tooltips="1" connect="1" arrows="1" fold="1" page="1" pageScale="1" pageWidth="827" pageHeight="1169" math="0" shadow="0">
      <root>
        <mxCell id="0" />
        <mxCell id="1" parent="0" />
        <mxCell id="vF-QhgKEHIKSGyNifdfp-5" value="" style="edgeStyle=orthogonalEdgeStyle;rounded=0;orthogonalLoop=1;jettySize=auto;html=1;" edge="1" parent="1" source="vF-QhgKEHIKSGyNifdfp-3" target="vF-QhgKEHIKSGyNifdfp-4">
          <mxGeometry relative="1" as="geometry" />
        </mxCell>
        <mxCell id="vF-QhgKEHIKSGyNifdfp-3" value="运营导入酒店" style="ellipse;whiteSpace=wrap;html=1;fillColor=#FFFFCC;" vertex="1" parent="1">
          <mxGeometry x="80" y="40" width="120" height="80" as="geometry" />
        </mxCell>
        <mxCell id="vF-QhgKEHIKSGyNifdfp-83" value="" style="edgeStyle=orthogonalEdgeStyle;rounded=0;orthogonalLoop=1;jettySize=auto;html=1;" edge="1" parent="1" source="vF-QhgKEHIKSGyNifdfp-4" target="vF-QhgKEHIKSGyNifdfp-82">
          <mxGeometry relative="1" as="geometry" />
        </mxCell>
        <mxCell id="vF-QhgKEHIKSGyNifdfp-4" value="将酒店导入数据库中&lt;br&gt;对应bizId" style="whiteSpace=wrap;html=1;fillColor=#FFFFCC;" vertex="1" parent="1">
          <mxGeometry x="80" y="153" width="120" height="60" as="geometry" />
        </mxCell>
        <mxCell id="vF-QhgKEHIKSGyNifdfp-13" value="" style="edgeStyle=orthogonalEdgeStyle;rounded=0;orthogonalLoop=1;jettySize=auto;html=1;" edge="1" parent="1" source="vF-QhgKEHIKSGyNifdfp-11" target="vF-QhgKEHIKSGyNifdfp-12">
          <mxGeometry relative="1" as="geometry" />
        </mxCell>
        <mxCell id="vF-QhgKEHIKSGyNifdfp-11" value="N分钟轮询" style="ellipse;whiteSpace=wrap;html=1;fillColor=#FFFFCC;" vertex="1" parent="1">
          <mxGeometry x="590" y="40" width="120" height="80" as="geometry" />
        </mxCell>
        <mxCell id="vF-QhgKEHIKSGyNifdfp-19" value="" style="edgeStyle=orthogonalEdgeStyle;rounded=0;orthogonalLoop=1;jettySize=auto;html=1;" edge="1" parent="1" source="vF-QhgKEHIKSGyNifdfp-12" target="vF-QhgKEHIKSGyNifdfp-18">
          <mxGeometry relative="1" as="geometry" />
        </mxCell>
        <mxCell id="vF-QhgKEHIKSGyNifdfp-12" value="查询crawlmodel&lt;br&gt;变更集合" style="whiteSpace=wrap;html=1;fillColor=#FFFFCC;" vertex="1" parent="1">
          <mxGeometry x="590" y="153" width="120" height="60" as="geometry" />
        </mxCell>
        <mxCell id="vF-QhgKEHIKSGyNifdfp-27" value="" style="edgeStyle=orthogonalEdgeStyle;rounded=0;orthogonalLoop=1;jettySize=auto;html=1;" edge="1" parent="1" source="vF-QhgKEHIKSGyNifdfp-18" target="vF-QhgKEHIKSGyNifdfp-26">
          <mxGeometry relative="1" as="geometry" />
        </mxCell>
        <mxCell id="vF-QhgKEHIKSGyNifdfp-18" value="是否为空" style="rhombus;whiteSpace=wrap;html=1;fillColor=#FFFFCC;" vertex="1" parent="1">
          <mxGeometry x="610" y="246" width="80" height="80" as="geometry" />
        </mxCell>
        <mxCell id="vF-QhgKEHIKSGyNifdfp-30" value="" style="edgeStyle=orthogonalEdgeStyle;rounded=0;orthogonalLoop=1;jettySize=auto;html=1;" edge="1" parent="1" source="vF-QhgKEHIKSGyNifdfp-26" target="vF-QhgKEHIKSGyNifdfp-29">
          <mxGeometry relative="1" as="geometry" />
        </mxCell>
        <mxCell id="vF-QhgKEHIKSGyNifdfp-26" value="查询busType关联的任务、对应的crawlmodel" style="whiteSpace=wrap;html=1;fillColor=#FFFFCC;" vertex="1" parent="1">
          <mxGeometry x="590" y="359" width="120" height="60" as="geometry" />
        </mxCell>
        <mxCell id="vF-QhgKEHIKSGyNifdfp-32" value="" style="edgeStyle=orthogonalEdgeStyle;rounded=0;orthogonalLoop=1;jettySize=auto;html=1;" edge="1" parent="1" source="vF-QhgKEHIKSGyNifdfp-29" target="vF-QhgKEHIKSGyNifdfp-31">
          <mxGeometry relative="1" as="geometry" />
        </mxCell>
        <mxCell id="vF-QhgKEHIKSGyNifdfp-29" value="移除&lt;span&gt;busType在当前crawlmodel下已存在的合并酒店&lt;/span&gt;" style="whiteSpace=wrap;html=1;fillColor=#FFFFCC;" vertex="1" parent="1">
          <mxGeometry x="590" y="537" width="120" height="60" as="geometry" />
        </mxCell>
        <mxCell id="vF-QhgKEHIKSGyNifdfp-34" value="" style="edgeStyle=orthogonalEdgeStyle;rounded=0;orthogonalLoop=1;jettySize=auto;html=1;" edge="1" parent="1" source="vF-QhgKEHIKSGyNifdfp-31" target="vF-QhgKEHIKSGyNifdfp-33">
          <mxGeometry relative="1" as="geometry" />
        </mxCell>
        <mxCell id="vF-QhgKEHIKSGyNifdfp-31" value="查询crawlmodel下所有的busType集合" style="whiteSpace=wrap;html=1;fillColor=#FFFFCC;" vertex="1" parent="1">
          <mxGeometry x="590" y="658" width="120" height="60" as="geometry" />
        </mxCell>
        <mxCell id="vF-QhgKEHIKSGyNifdfp-33" value="" style="whiteSpace=wrap;html=1;fillColor=#FFFFCC;" vertex="1" parent="1">
          <mxGeometry x="590" y="780" width="120" height="60" as="geometry" />
        </mxCell>
        <mxCell id="vF-QhgKEHIKSGyNifdfp-37" value="" style="edgeStyle=orthogonalEdgeStyle;rounded=0;orthogonalLoop=1;jettySize=auto;html=1;" edge="1" parent="1" source="vF-QhgKEHIKSGyNifdfp-35" target="vF-QhgKEHIKSGyNifdfp-36">
          <mxGeometry relative="1" as="geometry" />
        </mxCell>
        <mxCell id="vF-QhgKEHIKSGyNifdfp-35" value="执行调度任务" style="ellipse;whiteSpace=wrap;html=1;fillColor=#FFFFCC;" vertex="1" parent="1">
          <mxGeometry x="980" y="50" width="120" height="80" as="geometry" />
        </mxCell>
        <mxCell id="vF-QhgKEHIKSGyNifdfp-39" value="" style="edgeStyle=orthogonalEdgeStyle;rounded=0;orthogonalLoop=1;jettySize=auto;html=1;" edge="1" parent="1" source="vF-QhgKEHIKSGyNifdfp-36" target="vF-QhgKEHIKSGyNifdfp-38">
          <mxGeometry relative="1" as="geometry" />
        </mxCell>
        <mxCell id="vF-QhgKEHIKSGyNifdfp-36" value="查询当前时间触发的任务" style="whiteSpace=wrap;html=1;fillColor=#FFFFCC;" vertex="1" parent="1">
          <mxGeometry x="980" y="164" width="120" height="60" as="geometry" />
        </mxCell>
        <mxCell id="vF-QhgKEHIKSGyNifdfp-41" value="" style="edgeStyle=orthogonalEdgeStyle;rounded=0;orthogonalLoop=1;jettySize=auto;html=1;" edge="1" parent="1" source="vF-QhgKEHIKSGyNifdfp-38" target="vF-QhgKEHIKSGyNifdfp-40">
          <mxGeometry relative="1" as="geometry" />
        </mxCell>
        <mxCell id="vF-QhgKEHIKSGyNifdfp-38" value="根据bizId查询执行任务的酒店列表" style="whiteSpace=wrap;html=1;fillColor=#FFFFCC;" vertex="1" parent="1">
          <mxGeometry x="980" y="269" width="120" height="60" as="geometry" />
        </mxCell>
        <mxCell id="vF-QhgKEHIKSGyNifdfp-43" value="" style="edgeStyle=orthogonalEdgeStyle;rounded=0;orthogonalLoop=1;jettySize=auto;html=1;" edge="1" parent="1" source="vF-QhgKEHIKSGyNifdfp-40" target="vF-QhgKEHIKSGyNifdfp-42">
          <mxGeometry relative="1" as="geometry" />
        </mxCell>
        <mxCell id="vF-QhgKEHIKSGyNifdfp-40" value="根据taskId、hotelSeq&lt;br&gt;信息查询合并集合" style="whiteSpace=wrap;html=1;fillColor=#FFFFCC;" vertex="1" parent="1">
          <mxGeometry x="980" y="373" width="120" height="60" as="geometry" />
        </mxCell>
        <mxCell id="vF-QhgKEHIKSGyNifdfp-50" style="edgeStyle=orthogonalEdgeStyle;rounded=0;orthogonalLoop=1;jettySize=auto;html=1;exitX=1;exitY=0.5;exitDx=0;exitDy=0;entryX=1;entryY=0.5;entryDx=0;entryDy=0;" edge="1" parent="1" source="vF-QhgKEHIKSGyNifdfp-42" target="vF-QhgKEHIKSGyNifdfp-46">
          <mxGeometry relative="1" as="geometry">
            <mxPoint x="1160" y="716" as="targetPoint" />
            <Array as="points">
              <mxPoint x="1190" y="507" />
              <mxPoint x="1190" y="716" />
            </Array>
          </mxGeometry>
        </mxCell>
        <mxCell id="vF-QhgKEHIKSGyNifdfp-60" value="否" style="edgeLabel;html=1;align=center;verticalAlign=middle;resizable=0;points=[];" vertex="1" connectable="0" parent="vF-QhgKEHIKSGyNifdfp-50">
          <mxGeometry x="-0.6773" y="-1" relative="1" as="geometry">
            <mxPoint as="offset" />
          </mxGeometry>
        </mxCell>
        <mxCell id="vF-QhgKEHIKSGyNifdfp-42" value="是否有合并集" style="rhombus;whiteSpace=wrap;html=1;fillColor=#FFFFCC;" vertex="1" parent="1">
          <mxGeometry x="1000" y="467" width="80" height="80" as="geometry" />
        </mxCell>
        <mxCell id="vF-QhgKEHIKSGyNifdfp-54" style="edgeStyle=orthogonalEdgeStyle;rounded=0;orthogonalLoop=1;jettySize=auto;html=1;exitX=0;exitY=0.5;exitDx=0;exitDy=0;entryX=0;entryY=0.5;entryDx=0;entryDy=0;" edge="1" parent="1" source="vF-QhgKEHIKSGyNifdfp-44" target="vF-QhgKEHIKSGyNifdfp-48">
          <mxGeometry relative="1" as="geometry">
            <Array as="points">
              <mxPoint x="900" y="611" />
              <mxPoint x="900" y="820" />
            </Array>
          </mxGeometry>
        </mxCell>
        <mxCell id="vF-QhgKEHIKSGyNifdfp-62" value="是" style="edgeLabel;html=1;align=center;verticalAlign=middle;resizable=0;points=[];" vertex="1" connectable="0" parent="vF-QhgKEHIKSGyNifdfp-54">
          <mxGeometry x="-0.6915" y="-2" relative="1" as="geometry">
            <mxPoint as="offset" />
          </mxGeometry>
        </mxCell>
        <mxCell id="vF-QhgKEHIKSGyNifdfp-58" style="edgeStyle=orthogonalEdgeStyle;rounded=0;orthogonalLoop=1;jettySize=auto;html=1;exitX=0.5;exitY=1;exitDx=0;exitDy=0;entryX=0.5;entryY=0;entryDx=0;entryDy=0;" edge="1" parent="1" source="vF-QhgKEHIKSGyNifdfp-44" target="vF-QhgKEHIKSGyNifdfp-46">
          <mxGeometry relative="1" as="geometry" />
        </mxCell>
        <mxCell id="vF-QhgKEHIKSGyNifdfp-61" value="否" style="edgeLabel;html=1;align=center;verticalAlign=middle;resizable=0;points=[];" vertex="1" connectable="0" parent="vF-QhgKEHIKSGyNifdfp-58">
          <mxGeometry x="-0.0857" relative="1" as="geometry">
            <mxPoint as="offset" />
          </mxGeometry>
        </mxCell>
        <mxCell id="vF-QhgKEHIKSGyNifdfp-44" value="集合内是否已经执行过" style="rhombus;whiteSpace=wrap;html=1;fillColor=#FFFFCC;" vertex="1" parent="1">
          <mxGeometry x="1000" y="571" width="80" height="80" as="geometry" />
        </mxCell>
        <mxCell id="vF-QhgKEHIKSGyNifdfp-49" value="" style="edgeStyle=orthogonalEdgeStyle;rounded=0;orthogonalLoop=1;jettySize=auto;html=1;" edge="1" parent="1" source="vF-QhgKEHIKSGyNifdfp-46" target="vF-QhgKEHIKSGyNifdfp-48">
          <mxGeometry relative="1" as="geometry" />
        </mxCell>
        <mxCell id="vF-QhgKEHIKSGyNifdfp-46" value="执行任务" style="whiteSpace=wrap;html=1;fillColor=#FFFFCC;" vertex="1" parent="1">
          <mxGeometry x="980" y="686" width="120" height="60" as="geometry" />
        </mxCell>
        <mxCell id="vF-QhgKEHIKSGyNifdfp-48" value="结束" style="shape=hexagon;perimeter=hexagonPerimeter2;whiteSpace=wrap;html=1;fixedSize=1;fillColor=#FFCCCC;" vertex="1" parent="1">
          <mxGeometry x="980" y="780" width="120" height="80" as="geometry" />
        </mxCell>
        <mxCell id="vF-QhgKEHIKSGyNifdfp-56" value="" style="edgeStyle=orthogonalEdgeStyle;rounded=0;orthogonalLoop=1;jettySize=auto;html=1;entryX=0.5;entryY=0;entryDx=0;entryDy=0;" edge="1" parent="1" source="vF-QhgKEHIKSGyNifdfp-42" target="vF-QhgKEHIKSGyNifdfp-44">
          <mxGeometry relative="1" as="geometry">
            <mxPoint x="1040" y="494" as="sourcePoint" />
            <mxPoint x="1090" y="530" as="targetPoint" />
          </mxGeometry>
        </mxCell>
        <mxCell id="vF-QhgKEHIKSGyNifdfp-59" value="是" style="edgeLabel;html=1;align=center;verticalAlign=middle;resizable=0;points=[];" vertex="1" connectable="0" parent="vF-QhgKEHIKSGyNifdfp-56">
          <mxGeometry x="0.4643" y="1" relative="1" as="geometry">
            <mxPoint as="offset" />
          </mxGeometry>
        </mxCell>
        <mxCell id="vF-QhgKEHIKSGyNifdfp-72" value="" style="edgeStyle=orthogonalEdgeStyle;rounded=0;orthogonalLoop=1;jettySize=auto;html=1;" edge="1" parent="1" source="vF-QhgKEHIKSGyNifdfp-64" target="vF-QhgKEHIKSGyNifdfp-71">
          <mxGeometry relative="1" as="geometry" />
        </mxCell>
        <mxCell id="vF-QhgKEHIKSGyNifdfp-74" value="" style="edgeStyle=orthogonalEdgeStyle;rounded=0;orthogonalLoop=1;jettySize=auto;html=1;" edge="1" parent="1" source="vF-QhgKEHIKSGyNifdfp-64" target="vF-QhgKEHIKSGyNifdfp-73">
          <mxGeometry relative="1" as="geometry" />
        </mxCell>
        <mxCell id="vF-QhgKEHIKSGyNifdfp-64" value="规则计算时&lt;br&gt;crawlmodel" style="ellipse;shape=cloud;whiteSpace=wrap;html=1;" vertex="1" parent="1">
          <mxGeometry x="903" y="1300" width="129" height="80" as="geometry" />
        </mxCell>
        <mxCell id="vF-QhgKEHIKSGyNifdfp-71" value="酒店关联&lt;br&gt;bizId" style="ellipse;shape=cloud;whiteSpace=wrap;html=1;" vertex="1" parent="1">
          <mxGeometry x="903" y="1140" width="129" height="80" as="geometry" />
        </mxCell>
        <mxCell id="vF-QhgKEHIKSGyNifdfp-77" value="" style="edgeStyle=orthogonalEdgeStyle;rounded=0;orthogonalLoop=1;jettySize=auto;html=1;" edge="1" parent="1" source="vF-QhgKEHIKSGyNifdfp-73" target="vF-QhgKEHIKSGyNifdfp-76">
          <mxGeometry relative="1" as="geometry" />
        </mxCell>
        <mxCell id="vF-QhgKEHIKSGyNifdfp-73" value="crawlmodel" style="ellipse;shape=cloud;whiteSpace=wrap;html=1;" vertex="1" parent="1">
          <mxGeometry x="1112" y="1300" width="129" height="80" as="geometry" />
        </mxCell>
        <mxCell id="vF-QhgKEHIKSGyNifdfp-76" value="执行任务时&lt;br&gt;taskId、hotelSeq" style="ellipse;shape=cloud;whiteSpace=wrap;html=1;" vertex="1" parent="1">
          <mxGeometry x="1112" y="1460" width="129" height="80" as="geometry" />
        </mxCell>
        <mxCell id="vF-QhgKEHIKSGyNifdfp-89" value="" style="edgeStyle=orthogonalEdgeStyle;rounded=0;orthogonalLoop=1;jettySize=auto;html=1;" edge="1" parent="1" source="vF-QhgKEHIKSGyNifdfp-82" target="vF-QhgKEHIKSGyNifdfp-88">
          <mxGeometry relative="1" as="geometry" />
        </mxCell>
        <mxCell id="vF-QhgKEHIKSGyNifdfp-82" value="&lt;span&gt;根据bizId查询所有&lt;br&gt;关联crawlmodel&lt;/span&gt;" style="whiteSpace=wrap;html=1;fillColor=#FFFFCC;" vertex="1" parent="1">
          <mxGeometry x="80" y="256" width="120" height="60" as="geometry" />
        </mxCell>
        <mxCell id="vF-QhgKEHIKSGyNifdfp-92" value="" style="edgeStyle=orthogonalEdgeStyle;rounded=0;orthogonalLoop=1;jettySize=auto;html=1;" edge="1" parent="1" source="vF-QhgKEHIKSGyNifdfp-85" target="vF-QhgKEHIKSGyNifdfp-91">
          <mxGeometry relative="1" as="geometry" />
        </mxCell>
        <mxCell id="vF-QhgKEHIKSGyNifdfp-85" value="&lt;span&gt;将对应&lt;/span&gt;crawlmodel&lt;br&gt;&lt;span&gt;记录在变更集合中&lt;/span&gt;" style="whiteSpace=wrap;html=1;fillColor=#FFFFCC;" vertex="1" parent="1">
          <mxGeometry x="80" y="462" width="120" height="60" as="geometry" />
        </mxCell>
        <mxCell id="vF-QhgKEHIKSGyNifdfp-90" value="是" style="edgeStyle=orthogonalEdgeStyle;rounded=0;orthogonalLoop=1;jettySize=auto;html=1;" edge="1" parent="1" source="vF-QhgKEHIKSGyNifdfp-88" target="vF-QhgKEHIKSGyNifdfp-85">
          <mxGeometry relative="1" as="geometry" />
        </mxCell>
        <mxCell id="vF-QhgKEHIKSGyNifdfp-96" value="否" style="edgeStyle=orthogonalEdgeStyle;rounded=0;orthogonalLoop=1;jettySize=auto;html=1;exitX=0;exitY=0.5;exitDx=0;exitDy=0;entryX=0;entryY=0.5;entryDx=0;entryDy=0;" edge="1" parent="1" source="vF-QhgKEHIKSGyNifdfp-88" target="vF-QhgKEHIKSGyNifdfp-94">
          <mxGeometry relative="1" as="geometry">
            <mxPoint x="-50" y="690" as="targetPoint" />
            <Array as="points">
              <mxPoint x="30" y="389" />
              <mxPoint x="30" y="698" />
            </Array>
          </mxGeometry>
        </mxCell>
        <mxCell id="vF-QhgKEHIKSGyNifdfp-88" value="是否有关联&lt;br&gt;crawlmodel" style="rhombus;whiteSpace=wrap;html=1;fillColor=#FFFFCC;" vertex="1" parent="1">
          <mxGeometry x="100" y="349" width="80" height="80" as="geometry" />
        </mxCell>
        <mxCell id="vF-QhgKEHIKSGyNifdfp-95" value="" style="edgeStyle=orthogonalEdgeStyle;rounded=0;orthogonalLoop=1;jettySize=auto;html=1;" edge="1" parent="1" source="vF-QhgKEHIKSGyNifdfp-91" target="vF-QhgKEHIKSGyNifdfp-94">
          <mxGeometry relative="1" as="geometry" />
        </mxCell>
        <mxCell id="vF-QhgKEHIKSGyNifdfp-91" value="移除crawlmodel&lt;br&gt;对应的merge存储" style="whiteSpace=wrap;html=1;fillColor=#FFFFCC;" vertex="1" parent="1">
          <mxGeometry x="80" y="565" width="120" height="60" as="geometry" />
        </mxCell>
        <mxCell id="vF-QhgKEHIKSGyNifdfp-94" value="结束" style="shape=hexagon;perimeter=hexagonPerimeter2;whiteSpace=wrap;html=1;fixedSize=1;fillColor=#FFCCCC;" vertex="1" parent="1">
          <mxGeometry x="80" y="658" width="120" height="80" as="geometry" />
        </mxCell>
        <mxCell id="vF-QhgKEHIKSGyNifdfp-97" value="任务表" style="swimlane;childLayout=stackLayout;horizontal=1;startSize=30;horizontalStack=0;rounded=1;fontSize=14;fontStyle=0;strokeWidth=2;resizeParent=0;resizeLast=1;shadow=0;dashed=0;align=center;" vertex="1" parent="1">
          <mxGeometry y="1110" width="160" height="120" as="geometry" />
        </mxCell>
        <mxCell id="vF-QhgKEHIKSGyNifdfp-98" value="- task_id&#xa;- crawlmodel&#xa;- biz_id" style="align=left;strokeColor=none;fillColor=none;spacingLeft=4;fontSize=12;verticalAlign=top;resizable=0;rotatable=0;part=1;" vertex="1" parent="vF-QhgKEHIKSGyNifdfp-97">
          <mxGeometry y="30" width="160" height="90" as="geometry" />
        </mxCell>
        <mxCell id="vF-QhgKEHIKSGyNifdfp-99" value="业务组表" style="swimlane;childLayout=stackLayout;horizontal=1;startSize=30;horizontalStack=0;rounded=1;fontSize=14;fontStyle=0;strokeWidth=2;resizeParent=0;resizeLast=1;shadow=0;dashed=0;align=center;" vertex="1" parent="1">
          <mxGeometry x="280" y="1110" width="160" height="120" as="geometry" />
        </mxCell>
        <mxCell id="vF-QhgKEHIKSGyNifdfp-100" value="- biz_id&#xa;- bussiness_type&#xa;- priority&#xa;- account_level&#xa;- is_login" style="align=left;strokeColor=none;fillColor=none;spacingLeft=4;fontSize=12;verticalAlign=top;resizable=0;rotatable=0;part=1;" vertex="1" parent="vF-QhgKEHIKSGyNifdfp-99">
          <mxGeometry y="30" width="160" height="90" as="geometry" />
        </mxCell>
        <mxCell id="vF-QhgKEHIKSGyNifdfp-101" value="酒店表&#xa;" style="swimlane;childLayout=stackLayout;horizontal=1;startSize=30;horizontalStack=0;rounded=1;fontSize=14;fontStyle=0;strokeWidth=2;resizeParent=0;resizeLast=1;shadow=0;dashed=0;align=center;" vertex="1" parent="1">
          <mxGeometry x="590" y="1110" width="160" height="120" as="geometry" />
        </mxCell>
        <mxCell id="vF-QhgKEHIKSGyNifdfp-102" value="- biz_id&#xa;- hotel_seq" style="align=left;strokeColor=none;fillColor=none;spacingLeft=4;fontSize=12;verticalAlign=top;resizable=0;rotatable=0;part=1;" vertex="1" parent="vF-QhgKEHIKSGyNifdfp-101">
          <mxGeometry y="30" width="160" height="90" as="geometry" />
        </mxCell>
        <mxCell id="vF-QhgKEHIKSGyNifdfp-108" value="1" style="endArrow=open;html=1;endSize=12;startArrow=diamondThin;startSize=14;startFill=0;edgeStyle=orthogonalEdgeStyle;align=left;verticalAlign=bottom;exitX=1;exitY=0.5;exitDx=0;exitDy=0;entryX=0;entryY=0.5;entryDx=0;entryDy=0;" edge="1" parent="1" source="vF-QhgKEHIKSGyNifdfp-98" target="vF-QhgKEHIKSGyNifdfp-100">
          <mxGeometry x="-1" y="3" relative="1" as="geometry">
            <mxPoint x="160" y="1330" as="sourcePoint" />
            <mxPoint x="320" y="1330" as="targetPoint" />
          </mxGeometry>
        </mxCell>
        <mxCell id="vF-QhgKEHIKSGyNifdfp-109" value="1" style="endArrow=open;html=1;endSize=12;startArrow=diamondThin;startSize=14;startFill=0;edgeStyle=orthogonalEdgeStyle;align=left;verticalAlign=bottom;exitX=1;exitY=0.5;exitDx=0;exitDy=0;" edge="1" parent="1" source="vF-QhgKEHIKSGyNifdfp-100">
          <mxGeometry x="-1" y="3" relative="1" as="geometry">
            <mxPoint x="440" y="1310" as="sourcePoint" />
            <mxPoint x="590" y="1185" as="targetPoint" />
          </mxGeometry>
        </mxCell>
        <mxCell id="vF-QhgKEHIKSGyNifdfp-111" value="变更快照集&lt;br&gt;crawlmodel" style="html=1;" vertex="1" parent="1">
          <mxGeometry x="130" y="1420" width="110" height="70" as="geometry" />
        </mxCell>
        <mxCell id="vF-QhgKEHIKSGyNifdfp-112" value="酒店合并集&lt;br&gt;crawlmodel&lt;br&gt;biz_id&lt;br&gt;hotel_seq" style="html=1;" vertex="1" parent="1">
          <mxGeometry x="414" y="1420" width="110" height="70" as="geometry" />
        </mxCell>
        <mxCell id="vF-QhgKEHIKSGyNifdfp-113" value="" style="endArrow=none;html=1;exitX=0.5;exitY=0;exitDx=0;exitDy=0;entryX=0.5;entryY=1;entryDx=0;entryDy=0;" edge="1" parent="1" source="vF-QhgKEHIKSGyNifdfp-111" target="vF-QhgKEHIKSGyNifdfp-98">
          <mxGeometry relative="1" as="geometry">
            <mxPoint x="190" y="1300" as="sourcePoint" />
            <mxPoint x="350" y="1300" as="targetPoint" />
          </mxGeometry>
        </mxCell>
        <mxCell id="vF-QhgKEHIKSGyNifdfp-114" value="m" style="edgeLabel;resizable=0;html=1;align=left;verticalAlign=bottom;" connectable="0" vertex="1" parent="vF-QhgKEHIKSGyNifdfp-113">
          <mxGeometry x="-1" relative="1" as="geometry">
            <mxPoint x="-5" y="-10" as="offset" />
          </mxGeometry>
        </mxCell>
        <mxCell id="vF-QhgKEHIKSGyNifdfp-115" value="n" style="edgeLabel;resizable=0;html=1;align=right;verticalAlign=bottom;" connectable="0" vertex="1" parent="vF-QhgKEHIKSGyNifdfp-113">
          <mxGeometry x="1" relative="1" as="geometry">
            <mxPoint x="29.96" y="29.93" as="offset" />
          </mxGeometry>
        </mxCell>
        <mxCell id="vF-QhgKEHIKSGyNifdfp-123" value="" style="edgeStyle=orthogonalEdgeStyle;rounded=0;orthogonalLoop=1;jettySize=auto;html=1;" edge="1" parent="1" source="vF-QhgKEHIKSGyNifdfp-116" target="vF-QhgKEHIKSGyNifdfp-122">
          <mxGeometry relative="1" as="geometry" />
        </mxCell>
        <mxCell id="vF-QhgKEHIKSGyNifdfp-116" value="运营配置抓取任务&lt;br&gt;(增加 or 修改)" style="ellipse;whiteSpace=wrap;html=1;fillColor=#FFFFCC;" vertex="1" parent="1">
          <mxGeometry x="260" y="40" width="120" height="80" as="geometry" />
        </mxCell>
        <mxCell id="vF-QhgKEHIKSGyNifdfp-126" value="" style="edgeStyle=orthogonalEdgeStyle;rounded=0;orthogonalLoop=1;jettySize=auto;html=1;" edge="1" parent="1" source="vF-QhgKEHIKSGyNifdfp-122" target="vF-QhgKEHIKSGyNifdfp-125">
          <mxGeometry relative="1" as="geometry" />
        </mxCell>
        <mxCell id="vF-QhgKEHIKSGyNifdfp-122" value="保存配置结果" style="whiteSpace=wrap;html=1;fillColor=#FFFFCC;" vertex="1" parent="1">
          <mxGeometry x="260" y="153" width="120" height="60" as="geometry" />
        </mxCell>
        <mxCell id="vF-QhgKEHIKSGyNifdfp-127" value="有" style="edgeStyle=orthogonalEdgeStyle;rounded=0;orthogonalLoop=1;jettySize=auto;html=1;exitX=0;exitY=0.5;exitDx=0;exitDy=0;entryX=1;entryY=0.5;entryDx=0;entryDy=0;" edge="1" parent="1" source="vF-QhgKEHIKSGyNifdfp-125" target="vF-QhgKEHIKSGyNifdfp-82">
          <mxGeometry relative="1" as="geometry" />
        </mxCell>
        <mxCell id="vF-QhgKEHIKSGyNifdfp-128" style="edgeStyle=orthogonalEdgeStyle;rounded=0;orthogonalLoop=1;jettySize=auto;html=1;exitX=0.5;exitY=1;exitDx=0;exitDy=0;entryX=1;entryY=0.5;entryDx=0;entryDy=0;" edge="1" parent="1" source="vF-QhgKEHIKSGyNifdfp-125" target="vF-QhgKEHIKSGyNifdfp-94">
          <mxGeometry relative="1" as="geometry" />
        </mxCell>
        <mxCell id="vF-QhgKEHIKSGyNifdfp-125" value="任务关联bizId是否有变化" style="rhombus;whiteSpace=wrap;html=1;fillColor=#FFFFCC;" vertex="1" parent="1">
          <mxGeometry x="280" y="246" width="80" height="80" as="geometry" />
        </mxCell>
      </root>
    </mxGraphModel>
  </diagram>
</mxfile>
